# xmcd
# Track frame offsets:
# 150
# 15071
# 30110
# 51174
# 67608
# 86520
# 106581
# 123142
# 137279
# 161373
# 189876
# 206472
#
# Disc length: 3135 seconds
# Revision: 0
# Processed by: cddbd v1.5.1PL0 Copyright (c) Steve Scherf et al.
# Submitted via: VisiTrax 2.9.9.209 - For more info visit www.synapsa.com
#
DISCID=710c3d0c
DTITLE=Gordon Jay - Extremely Dangerous Blues
DYEAR=2001
DGENRE=Blues
TTITLE0=Jay Gordon - Boogie In The Wine
TTITLE1=Jay Gordon - Upside The Head
TTITLE2=Jay Gardon - Drippin' Blues
TTITLE3=Jay Gordon - Lucky 13
TTITLE4=Jay Gordon - Can't Shake This Feelin'
TTITLE5=Jay Gordon - Message To Collins
TTITLE6=Jay Gordon - El Diablo's Blues
TTITLE7=Jay Gordon - Midnight Lamp
TTITLE8=Jay Gordon - Savage Resurrection (For Jimi)
TTITLE9=Jay Gordon w/Phillip Walker - Jaywalkin'
TTITLE10=Jay Gordon - Voodoo Boogie
TTITLE11=Jay Gordon - Blues Infested
EXTD=
EXTT0=
EXTT1=
EXTT2=
EXTT3=
EXTT4=
EXTT5=
EXTT6=
EXTT7=
EXTT8=
EXTT9=
EXTT10=
EXTT11=
PLAYORDER=
